<svg width="24" height="23" viewBox="0 0 24 23" fill="none" xmlns="http://www.w3.org/2000/svg">
<path d="M17.309 6.19901C17.309 8.93283 15.0928 11.149 12.359 11.149C9.6252 11.149 7.40901 8.93283 7.40901 6.19901C7.40901 3.46518 9.6252 1.24898 12.359 1.24898C15.0928 1.24898 17.309 3.46518 17.309 6.19901Z" stroke="black" stroke-width="1.1"/>
<path d="M2.45901 22.3009H22.259C22.8665 22.3009 23.359 21.8084 23.359 21.2009V19.4565C23.359 19.1647 23.239 18.8792 23.0288 18.6769C14.143 10.124 5.28755 14.9228 1.64721 18.6927C1.45775 18.8889 1.35901 19.1519 1.35901 19.4246V21.2009C1.35901 21.8084 1.8515 22.3009 2.45901 22.3009Z" stroke="black" stroke-width="1.1"/>
</svg>
