<svg xmlns="http://www.w3.org/2000/svg" width="25" height="25" viewBox="0 0 25 25" fill="none">
  <path d="M23.2042 10.084C22.6993 7.7085 21.3604 5.54639 19.4336 3.99609C17.4633 2.41959 15.0147 1.56125 12.4913 1.5625C9.51665 1.5625 6.73833 2.7085 4.66119 4.78955C2.65386 6.80322 1.55376 9.46192 1.56255 12.2739C1.56262 14.3356 2.16788 16.3519 3.30328 18.0728L3.51568 18.3682L2.3438 23.4375L7.94927 22.043C7.94927 22.043 8.06158 22.0806 8.14458 22.1123C8.22759 22.144 8.94195 22.418 9.69976 22.6299C10.3296 22.8057 11.6402 23.0693 12.667 23.0693C15.5796 23.0693 18.2994 21.9414 20.3248 19.8926C22.3321 17.8599 23.4376 15.1572 23.4376 12.2798C23.4377 11.5417 23.3595 10.8056 23.2042 10.084ZM7.81255 14.0625C7.50352 14.0625 7.20143 13.9709 6.94447 13.7992C6.68752 13.6275 6.48725 13.3835 6.36899 13.0979C6.25073 12.8124 6.21979 12.4983 6.28008 12.1952C6.34036 11.8921 6.48918 11.6137 6.7077 11.3951C6.92622 11.1766 7.20463 11.0278 7.50772 10.9675C7.81082 10.9072 8.12499 10.9382 8.41049 11.0564C8.696 11.1747 8.94003 11.375 9.11172 11.6319C9.28341 11.8889 9.37505 12.191 9.37505 12.5C9.37505 12.9144 9.21043 13.3118 8.91741 13.6049C8.62438 13.8979 8.22695 14.0625 7.81255 14.0625ZM12.5001 14.0625C12.191 14.0625 11.8889 13.9709 11.632 13.7992C11.375 13.6275 11.1748 13.3835 11.0565 13.0979C10.9382 12.8124 10.9073 12.4983 10.9676 12.1952C11.0279 11.8921 11.1767 11.6137 11.3952 11.3951C11.6137 11.1766 11.8921 11.0278 12.1952 10.9675C12.4983 10.9072 12.8125 10.9382 13.098 11.0564C13.3835 11.1747 13.6275 11.375 13.7992 11.6319C13.9709 11.8889 14.0626 12.191 14.0626 12.5C14.0626 12.9144 13.8979 13.3118 13.6049 13.6049C13.3119 13.8979 12.9145 14.0625 12.5001 14.0625ZM17.1876 14.0625C16.8785 14.0625 16.5764 13.9709 16.3195 13.7992C16.0625 13.6275 15.8623 13.3835 15.744 13.0979C15.6257 12.8124 15.5948 12.4983 15.6551 12.1952C15.7154 11.8921 15.8642 11.6137 16.0827 11.3951C16.3012 11.1766 16.5796 11.0278 16.8827 10.9675C17.1858 10.9072 17.5 10.9382 17.7855 11.0564C18.071 11.1747 18.315 11.375 18.4867 11.6319C18.6584 11.8889 18.7501 12.191 18.7501 12.5C18.7501 12.9144 18.5854 13.3118 18.2924 13.6049C17.9994 13.8979 17.602 14.0625 17.1876 14.0625Z" fill="black"/>
</svg>